<?xml version="1.0" encoding="UTF-8"?>
<svg id="Layer_1" data-name="Layer 1" xmlns="http://www.w3.org/2000/svg" viewBox="0 0 512 512">
  <defs>
    <style>
      .cls-1 {
        fill: #fff;
        stroke-width: 0px;
      }
    </style>
  </defs>
  <path class="cls-1" d="m502.29,159.7L268.29,3.7c-7.99-4.91-16.51-4.96-24.57,0L9.71,159.7c-6,4-9.71,11.14-9.71,18.29v156c0,7.14,3.71,14.29,9.72,18.29l234,156.02c7.99,4.92,16.51,4.96,24.57,0l234-156.02c6-4,9.72-11.14,9.72-18.29v-156c0-7.14-3.71-14.29-9.72-18.29h0Zm-224.29-96.57l172.29,114.86-76.86,51.43-95.43-63.71V63.13Zm-44,0v102.57l-95.43,63.71-76.86-51.43L234,63.13ZM44,219.13l55.14,36.86-55.14,36.86v-73.71h0Zm190,229.71l-172.29-114.86,76.86-51.43,95.43,63.71v102.57Zm22-140.86l-77.71-52,77.71-52,77.71,52-77.71,52Zm22,140.86v-102.57l95.43-63.71,76.86,51.43-172.29,114.86Zm190-156l-55.14-36.86,55.14-36.86v73.71h0Z"/>
</svg>